<mxfile host="app.diagrams.net" modified="2024-05-28T08:21:04.332Z" agent="Mozilla/5.0 (Windows NT 10.0; Win64; x64) AppleWebKit/537.36 (KHTML, like Gecko) Chrome/125.0.0.0 Safari/537.36" etag="uMN3L8U77Ebc5zguPCKK" version="24.4.9" type="github">
  <diagram name="第 1 页" id="pXgtNWsuC-VWCxMIHhae">
    <mxGraphModel dx="794" dy="469" grid="1" gridSize="10" guides="1" tooltips="1" connect="1" arrows="1" fold="1" page="1" pageScale="1" pageWidth="827" pageHeight="1169" math="0" shadow="0">
      <root>
        <mxCell id="0" />
        <mxCell id="1" parent="0" />
        <mxCell id="1MnGbTl9ceKqmBBzUZh7-1" value="HTTP请求处理响应" style="whiteSpace=wrap;html=1;" vertex="1" parent="1">
          <mxGeometry x="130" y="60" width="120" height="60" as="geometry" />
        </mxCell>
        <mxCell id="1MnGbTl9ceKqmBBzUZh7-2" value="URL映射" style="whiteSpace=wrap;html=1;" vertex="1" parent="1">
          <mxGeometry x="440" y="60" width="120" height="60" as="geometry" />
        </mxCell>
        <mxCell id="1MnGbTl9ceKqmBBzUZh7-3" value="" style="rounded=1;whiteSpace=wrap;html=1;" vertex="1" parent="1">
          <mxGeometry x="40" y="170" width="640" height="200" as="geometry" />
        </mxCell>
        <mxCell id="1MnGbTl9ceKqmBBzUZh7-4" value="对相关关系映射&lt;br&gt;ORM" style="rounded=1;whiteSpace=wrap;html=1;" vertex="1" parent="1">
          <mxGeometry x="130" y="420" width="120" height="60" as="geometry" />
        </mxCell>
        <mxCell id="1MnGbTl9ceKqmBBzUZh7-5" value="模板引擎" style="rounded=1;whiteSpace=wrap;html=1;" vertex="1" parent="1">
          <mxGeometry x="440" y="420" width="120" height="60" as="geometry" />
        </mxCell>
        <mxCell id="1MnGbTl9ceKqmBBzUZh7-6" value="数据库" style="shape=cylinder3;whiteSpace=wrap;html=1;boundedLbl=1;backgroundOutline=1;size=15;" vertex="1" parent="1">
          <mxGeometry x="160" y="520" width="60" height="80" as="geometry" />
        </mxCell>
        <mxCell id="1MnGbTl9ceKqmBBzUZh7-7" value="文件系统" style="whiteSpace=wrap;html=1;" vertex="1" parent="1">
          <mxGeometry x="440" y="530" width="120" height="60" as="geometry" />
        </mxCell>
        <mxCell id="1MnGbTl9ceKqmBBzUZh7-10" value="模型" style="shape=document;whiteSpace=wrap;html=1;boundedLbl=1;" vertex="1" parent="1">
          <mxGeometry x="110" y="230" width="120" height="80" as="geometry" />
        </mxCell>
        <mxCell id="1MnGbTl9ceKqmBBzUZh7-11" value="视图" style="shape=document;whiteSpace=wrap;html=1;boundedLbl=1;" vertex="1" parent="1">
          <mxGeometry x="294" y="230" width="120" height="80" as="geometry" />
        </mxCell>
        <mxCell id="1MnGbTl9ceKqmBBzUZh7-12" value="模型" style="shape=document;whiteSpace=wrap;html=1;boundedLbl=1;" vertex="1" parent="1">
          <mxGeometry x="470" y="230" width="120" height="80" as="geometry" />
        </mxCell>
        <mxCell id="1MnGbTl9ceKqmBBzUZh7-14" style="edgeStyle=orthogonalEdgeStyle;rounded=0;orthogonalLoop=1;jettySize=auto;html=1;exitX=0.75;exitY=1;exitDx=0;exitDy=0;entryX=0.282;entryY=0.007;entryDx=0;entryDy=0;entryPerimeter=0;" edge="1" parent="1" source="1MnGbTl9ceKqmBBzUZh7-1" target="1MnGbTl9ceKqmBBzUZh7-3">
          <mxGeometry relative="1" as="geometry" />
        </mxCell>
        <mxCell id="1MnGbTl9ceKqmBBzUZh7-15" style="edgeStyle=orthogonalEdgeStyle;rounded=0;orthogonalLoop=1;jettySize=auto;html=1;exitX=0.188;exitY=-0.004;exitDx=0;exitDy=0;entryX=0.25;entryY=1;entryDx=0;entryDy=0;exitPerimeter=0;" edge="1" parent="1" source="1MnGbTl9ceKqmBBzUZh7-3" target="1MnGbTl9ceKqmBBzUZh7-1">
          <mxGeometry relative="1" as="geometry" />
        </mxCell>
        <mxCell id="1MnGbTl9ceKqmBBzUZh7-16" style="edgeStyle=orthogonalEdgeStyle;rounded=0;orthogonalLoop=1;jettySize=auto;html=1;exitX=0.75;exitY=1;exitDx=0;exitDy=0;entryX=0.282;entryY=0.007;entryDx=0;entryDy=0;entryPerimeter=0;" edge="1" parent="1">
          <mxGeometry relative="1" as="geometry">
            <mxPoint x="534" y="121" as="sourcePoint" />
            <mxPoint x="534" y="172" as="targetPoint" />
          </mxGeometry>
        </mxCell>
        <mxCell id="1MnGbTl9ceKqmBBzUZh7-17" style="edgeStyle=orthogonalEdgeStyle;rounded=0;orthogonalLoop=1;jettySize=auto;html=1;exitX=0.188;exitY=-0.004;exitDx=0;exitDy=0;entryX=0.25;entryY=1;entryDx=0;entryDy=0;exitPerimeter=0;" edge="1" parent="1">
          <mxGeometry relative="1" as="geometry">
            <mxPoint x="474" y="170" as="sourcePoint" />
            <mxPoint x="474" y="121" as="targetPoint" />
          </mxGeometry>
        </mxCell>
        <mxCell id="1MnGbTl9ceKqmBBzUZh7-18" style="edgeStyle=orthogonalEdgeStyle;rounded=0;orthogonalLoop=1;jettySize=auto;html=1;exitX=0.75;exitY=1;exitDx=0;exitDy=0;entryX=0.282;entryY=0.007;entryDx=0;entryDy=0;entryPerimeter=0;" edge="1" parent="1">
          <mxGeometry relative="1" as="geometry">
            <mxPoint x="219.43" y="370" as="sourcePoint" />
            <mxPoint x="219.43" y="421" as="targetPoint" />
          </mxGeometry>
        </mxCell>
        <mxCell id="1MnGbTl9ceKqmBBzUZh7-19" style="edgeStyle=orthogonalEdgeStyle;rounded=0;orthogonalLoop=1;jettySize=auto;html=1;exitX=0.188;exitY=-0.004;exitDx=0;exitDy=0;entryX=0.25;entryY=1;entryDx=0;entryDy=0;exitPerimeter=0;" edge="1" parent="1">
          <mxGeometry relative="1" as="geometry">
            <mxPoint x="159.43" y="419" as="sourcePoint" />
            <mxPoint x="159.43" y="370" as="targetPoint" />
          </mxGeometry>
        </mxCell>
        <mxCell id="1MnGbTl9ceKqmBBzUZh7-20" style="edgeStyle=orthogonalEdgeStyle;rounded=0;orthogonalLoop=1;jettySize=auto;html=1;exitX=0.75;exitY=1;exitDx=0;exitDy=0;entryX=0.282;entryY=0.007;entryDx=0;entryDy=0;entryPerimeter=0;" edge="1" parent="1">
          <mxGeometry relative="1" as="geometry">
            <mxPoint x="529.8" y="370" as="sourcePoint" />
            <mxPoint x="529.8" y="421" as="targetPoint" />
          </mxGeometry>
        </mxCell>
        <mxCell id="1MnGbTl9ceKqmBBzUZh7-21" style="edgeStyle=orthogonalEdgeStyle;rounded=0;orthogonalLoop=1;jettySize=auto;html=1;exitX=0.188;exitY=-0.004;exitDx=0;exitDy=0;entryX=0.25;entryY=1;entryDx=0;entryDy=0;exitPerimeter=0;" edge="1" parent="1">
          <mxGeometry relative="1" as="geometry">
            <mxPoint x="469.8" y="419" as="sourcePoint" />
            <mxPoint x="469.8" y="370" as="targetPoint" />
          </mxGeometry>
        </mxCell>
        <mxCell id="1MnGbTl9ceKqmBBzUZh7-22" style="edgeStyle=orthogonalEdgeStyle;rounded=0;orthogonalLoop=1;jettySize=auto;html=1;exitX=0.75;exitY=1;exitDx=0;exitDy=0;entryX=0.282;entryY=0.007;entryDx=0;entryDy=0;entryPerimeter=0;" edge="1" parent="1">
          <mxGeometry relative="1" as="geometry">
            <mxPoint x="529.8" y="480" as="sourcePoint" />
            <mxPoint x="529.8" y="531" as="targetPoint" />
          </mxGeometry>
        </mxCell>
        <mxCell id="1MnGbTl9ceKqmBBzUZh7-23" style="edgeStyle=orthogonalEdgeStyle;rounded=0;orthogonalLoop=1;jettySize=auto;html=1;exitX=0.188;exitY=-0.004;exitDx=0;exitDy=0;entryX=0.25;entryY=1;entryDx=0;entryDy=0;exitPerimeter=0;" edge="1" parent="1">
          <mxGeometry relative="1" as="geometry">
            <mxPoint x="469.8" y="529" as="sourcePoint" />
            <mxPoint x="469.8" y="480" as="targetPoint" />
          </mxGeometry>
        </mxCell>
        <mxCell id="1MnGbTl9ceKqmBBzUZh7-24" style="edgeStyle=orthogonalEdgeStyle;rounded=0;orthogonalLoop=1;jettySize=auto;html=1;exitX=0.75;exitY=1;exitDx=0;exitDy=0;entryX=0.282;entryY=0.007;entryDx=0;entryDy=0;entryPerimeter=0;" edge="1" parent="1">
          <mxGeometry relative="1" as="geometry">
            <mxPoint x="209.99999999999994" y="479" as="sourcePoint" />
            <mxPoint x="209.99999999999994" y="530" as="targetPoint" />
          </mxGeometry>
        </mxCell>
        <mxCell id="1MnGbTl9ceKqmBBzUZh7-25" style="edgeStyle=orthogonalEdgeStyle;rounded=0;orthogonalLoop=1;jettySize=auto;html=1;exitX=0.188;exitY=-0.004;exitDx=0;exitDy=0;entryX=0.25;entryY=1;entryDx=0;entryDy=0;exitPerimeter=0;" edge="1" parent="1">
          <mxGeometry relative="1" as="geometry">
            <mxPoint x="169.76" y="529" as="sourcePoint" />
            <mxPoint x="169.76" y="480" as="targetPoint" />
          </mxGeometry>
        </mxCell>
        <mxCell id="1MnGbTl9ceKqmBBzUZh7-26" value="应用" style="text;html=1;align=center;verticalAlign=middle;resizable=0;points=[];autosize=1;strokeColor=none;fillColor=none;" vertex="1" parent="1">
          <mxGeometry x="60" y="180" width="50" height="30" as="geometry" />
        </mxCell>
      </root>
    </mxGraphModel>
  </diagram>
</mxfile>
